<svg width="160" height="160" viewBox="0 0 160 160" fill="none" xmlns="http://www.w3.org/2000/svg">
<rect width="160" height="160" fill="url(#paint0_linear_617_772)"/>
<path fill-rule="evenodd" clip-rule="evenodd" d="M5.9979 51L0 64.9833V76.1204H7.41034L8.99231 72.1605H13.2407L14.834 76.1204H75.1133V72.1605L78.3307 76.1204H94.5414V73.3324C94.5414 73.3324 97.2919 76.1204 101.595 76.1204H112.346L113.915 72.1605H118.177L119.771 76.1204H135.625V71.6655L138.471 76.1204H149.361V51H138.471V55.4406L135.501 51H124.71V58.796L121.365 51.0656L102.585 51C97.584 51 94.5414 53.8462 94.5414 53.8462V51H36.6594L34.6951 56.6614L32.6687 51H19.7745V58.8329L16.3706 51H5.9979ZM0.0318179 72.9062L8.12166 54.0968H14.2548L22.3369 72.9062H16.954L15.469 69.1397H6.79141L5.29871 72.9062H0.0318179ZM13.7598 65.056L11.1147 58.4743L8.46196 65.056H13.7598ZM22.8941 72.9029V54.0936L30.3786 54.1214L34.7319 66.2485L38.981 54.0936H46.4058V72.9029H41.7033V59.0434L36.7188 72.9029H32.5949L27.5964 59.0434V72.9029H22.8941ZM49.6211 54.0936V72.9029H64.9654V68.8193H54.373V65.4782H64.7179V61.5183H54.373V58.301H64.9654V54.0936H49.6211ZM67.6886 54.0968V72.9062H72.3911V66.2239H74.3709L80.009 72.9062H85.7554L79.5683 65.9763C82.1075 65.7622 84.7268 63.5827 84.7268 60.199C84.7268 56.2409 81.6201 54.0968 78.1529 54.0968H67.6886ZM72.3911 58.3043H77.7662C79.0556 58.3043 79.9935 59.3128 79.9935 60.2841C79.9935 61.5338 78.7783 62.264 77.8358 62.264H72.3911V58.3043ZM86.6473 72.9029H91.4485V54.0936H86.6473V72.9029ZM102.833 72.9029H101.797C96.7822 72.9029 93.7377 68.9523 93.7377 63.5756C93.7377 58.066 96.7481 54.0936 103.081 54.0936H108.278V58.5485H102.89C100.32 58.5485 98.5018 60.5546 98.5018 63.6221C98.5018 67.2646 100.581 68.7947 103.575 68.7947H104.813L102.833 72.9029ZM104.974 72.9062L113.064 54.0968H119.197L127.279 72.9062H121.896L120.411 69.1397H111.734L110.241 72.9062H104.974ZM118.702 65.056L116.057 58.4743L113.404 65.056H118.702ZM127.829 72.9029V54.0936H133.808L141.441 65.9113V54.0936H146.144V72.9029H140.358L132.532 60.7759V72.9029H127.829ZM31.0576 109.036V83.9162H57.6552L60.5088 87.6363L63.4569 83.9162H160V87.01H151.026C145.533 87.01 143.647 89.9183 143.647 92.9342C143.647 96.3156 145.706 98.5678 149.403 98.5678H153.655C155.05 98.5678 155.651 99.367 155.651 100.158C155.651 100.983 155.048 101.735 153.655 101.735H144.244V105.819H154.266C157.34 105.819 159.23 104.334 160 102.222V107.304C160 107.304 157.475 109.011 154.555 109.036H101.097L97.8799 105.077V109.036H87.3368V102.277C87.3368 102.277 85.8966 103.22 82.783 103.22H79.1944V109.036H63.2313L60.3818 105.237L57.4884 109.036H31.0576ZM158.203 91.242L160 87.4006V97.5498C159.268 95.6829 157.502 94.4345 154.491 94.4345H150.036C148.879 94.4345 148.303 93.5747 148.303 92.795C148.303 92.0364 148.769 91.242 150.283 91.242H158.203ZM34.2749 105.819V87.01H49.6193V91.2172H39.0268V94.4345H49.3719V98.3944H39.0268V101.735H49.6193V105.819H34.2749ZM109.463 105.819H124.807V101.735H114.215V98.3944H124.51V94.4345H114.215V91.2172H124.807V87.01H109.463V105.819ZM50.2149 105.819L57.686 96.5305L50.037 87.01H55.9613L60.5167 92.8956L65.0875 87.01H70.7798L63.2313 96.4146L70.7162 105.819H64.7928L60.3698 100.026L56.0541 105.819H50.2149ZM71.2765 105.822V87.0131H81.6633C85.9254 87.0131 88.4153 89.7599 88.4153 93.3394C88.4153 97.6606 85.2406 99.8825 81.0524 99.8825H76.1025V105.822H71.2765ZM81.3154 91.2668H76.1025V95.5978H81.2999C82.6733 95.5978 83.6355 94.6877 83.6355 93.4324C83.6355 92.0961 82.6684 91.2668 81.3154 91.2668ZM90.4553 105.819H95.1576V99.1368H97.1376L102.776 105.819H108.522L102.335 98.8895C104.874 98.6751 107.494 96.4957 107.494 93.1121C107.494 89.1539 104.387 87.01 100.92 87.01H90.4553V105.819ZM95.1576 91.2172H100.533C101.822 91.2172 102.76 92.2259 102.76 93.1971C102.76 94.4467 101.545 95.1771 100.602 95.1771H95.1576V91.2172ZM126.987 101.735V105.819H137.009C141.149 105.819 143.142 103.124 143.142 99.8329C143.142 96.772 141.354 94.4345 137.233 94.4345H132.778C131.622 94.4345 131.046 93.5747 131.046 92.795C131.046 92.0364 131.512 91.242 133.026 91.242H140.945L142.925 87.01H133.768C128.275 87.01 126.39 89.9183 126.39 92.9342C126.39 96.3156 128.449 98.5678 132.145 98.5678H136.398C137.792 98.5678 138.393 99.367 138.393 100.158C138.393 100.983 137.79 101.735 136.398 101.735H126.987Z" fill="white"/>
<defs>
<linearGradient id="paint0_linear_617_772" x1="-12.0001" y1="-104" x2="96.9029" y2="285.4" gradientUnits="userSpaceOnUse">
<stop offset="0.0569697" stop-color="#0095FF"/>
<stop offset="0.841212" stop-color="#017ED7"/>
</linearGradient>
</defs>
</svg>
