<svg width="160" height="160" viewBox="0 0 160 160" fill="none" xmlns="http://www.w3.org/2000/svg">
<rect y="6.10352e-05" width="160" height="160" fill="url(#paint0_linear_617_626)"/>
<path fill-rule="evenodd" clip-rule="evenodd" d="M47.6542 64.4143C48.8229 62.9573 49.6112 60.9993 49.4004 59C47.7 59.0827 45.6238 60.1261 44.423 61.5831C43.3414 62.8332 42.3881 64.8739 42.6356 66.7905C44.5468 66.956 46.4534 65.8299 47.6588 64.4143H47.6542ZM49.3775 67.1674C46.6046 66.9974 44.2443 68.7439 42.9197 68.7439C41.5952 68.7439 39.5694 67.2502 37.374 67.2915C34.5187 67.3329 31.8696 68.9462 30.4213 71.5246C27.4422 76.6724 29.633 84.3158 32.5296 88.5122C33.9412 90.5896 35.637 92.8739 37.869 92.7912C39.9773 92.7085 40.8115 91.4215 43.3781 91.4215C45.9447 91.4215 46.6871 92.7912 48.9238 92.7544C51.2383 92.7085 52.6912 90.6724 54.0982 88.5949C55.7115 86.2278 56.3715 83.9435 56.4127 83.8194C56.3715 83.7735 51.9441 82.0729 51.9028 76.9665C51.857 72.6921 55.3815 70.6559 55.5465 70.5318C53.5574 67.5811 50.4545 67.2502 49.3775 67.1674V67.1674ZM70.2036 77.8306H75.7356C79.9338 77.8306 82.3217 75.5647 82.3217 71.6349C82.3217 67.7052 79.9338 65.4576 75.7539 65.4576H70.2036V77.8306ZM77.0235 61.3762C83.055 61.3762 87.2532 65.545 87.2532 71.6119C87.2532 77.7019 82.9679 81.889 76.8768 81.889H70.199V92.5338H65.3775V61.3762H77.0235ZM103.088 84.0676V82.3211L97.7258 82.6658C94.7101 82.8588 93.1426 83.9803 93.1426 85.9475C93.1426 87.8457 94.7743 89.0775 97.3363 89.0775C100.609 89.0775 103.088 86.9816 103.088 84.0676V84.0676ZM88.4448 86.0762C88.4448 82.0821 91.4835 79.7932 97.0796 79.4485L103.084 79.0808V77.3526C103.084 74.8247 101.429 73.4458 98.4775 73.4458C96.0484 73.4458 94.2793 74.696 93.9126 76.6172H89.5631C89.696 72.5817 93.4818 69.6448 98.6104 69.6448C104.119 69.6448 107.717 72.5404 107.717 77.0309V92.5338H103.258V88.7971H103.152C101.883 91.2331 99.0825 92.7682 96.0484 92.7682C91.5706 92.7682 88.4448 90.0932 88.4448 86.0762V86.0762ZM111.819 100.871V97.1346C112.122 97.176 112.855 97.2173 113.24 97.2173C115.371 97.2173 116.577 96.3119 117.31 93.9816L117.741 92.6028L109.583 69.9297H114.62L120.303 88.3237H120.413L126.096 69.9297H131L122.544 93.7426C120.605 99.2075 118.387 101 113.694 101C113.327 101 112.145 100.954 111.819 100.867V100.871Z" fill="white"/>
<defs>
<linearGradient id="paint0_linear_617_626" x1="178.571" y1="274.286" x2="-48.5291" y2="-110.48" gradientUnits="userSpaceOnUse">
<stop offset="0.318171" stop-color="#292929"/>
<stop offset="0.938" stop-color="#848484"/>
</linearGradient>
</defs>
</svg>
