<svg width="160" height="160" viewBox="0 0 160 160" fill="none" xmlns="http://www.w3.org/2000/svg">
<rect width="160" height="160" fill="url(#paint0_linear_617_1078)"/>
<path fill-rule="evenodd" clip-rule="evenodd" d="M83.6364 104H94.8239V86.1003H94.9487C97.0631 90.0221 101.291 91.4749 105.206 91.4749C114.841 91.4749 120 83.378 120 73.6355C120 65.6669 115.093 57 106.14 57C101.043 57 96.317 59.0875 94.0799 63.7055H93.9551V57.7587H83.6364V104ZM108.44 73.8899C108.44 79.1415 105.891 82.7454 101.666 82.7454C97.935 82.7454 94.8239 79.1415 94.8239 74.3317C94.8239 69.3991 97.5615 65.7295 101.666 65.7295C106.016 65.7295 108.44 69.523 108.44 73.8899ZM76.3636 57.7466H66.0888V63.5966H65.9654C63.5697 59.6142 59.6613 57 54.8098 57C44.6015 57 40 64.2191 40 73.869C40 83.4594 45.6089 90.1769 54.6221 90.1769C59.1592 90.1769 62.94 88.4387 65.6479 84.6366H65.7755V86.3834C65.7755 92.7328 62.248 95.7819 55.6928 95.7819C50.9657 95.7819 48.0669 94.7871 44.6015 93.1061L44.0329 101.947C46.6807 102.877 51.1556 104 56.5747 104C69.8095 104 76.3636 99.7027 76.3636 86.3834V57.7466ZM51.7221 73.6813C51.7221 69.263 53.9279 65.5904 58.1507 65.5904C63.2543 65.5904 65.3979 69.6332 65.3979 73.2454C65.3979 78.2278 62.1825 81.5886 58.1507 81.5886C54.7476 81.5886 51.7221 78.722 51.7221 73.6813Z" fill="#FFFFFE"/>
<defs>
<linearGradient id="paint0_linear_617_1078" x1="160" y1="214.097" x2="77.7726" y2="-130.219" gradientUnits="userSpaceOnUse">
<stop offset="0.271111" stop-color="#053C89"/>
<stop offset="0.876542" stop-color="#0F4CA1"/>
</linearGradient>
</defs>
</svg>
