<svg width="160" height="160" viewBox="0 0 160 160" fill="none" xmlns="http://www.w3.org/2000/svg">
<path d="M160 1.39876e-05L1.15024e-05 0L0 160L160 160L160 1.39876e-05Z" fill="url(#paint0_linear_638_585)"/>
<path d="M48 54.5333V105.57C48 108.056 50.0473 109.957 52.3871 109.957H82.9505C106.056 109.957 116 97.0882 116 79.9785C116 62.8688 106.056 50 82.9505 50H52.5333C50.0473 50.1462 48 52.1935 48 54.5333Z" fill="white"/>
<path d="M68.4734 62.7225V100.452H84.8519C99.768 100.452 106.202 91.9698 106.202 80.1246C106.202 68.7182 99.768 59.944 84.8519 59.944H71.2519C69.7895 59.7977 68.4734 61.1139 68.4734 62.7225Z" fill="#CC0066"/>
<path d="M82.9506 106.009H56.4818C54.142 106.009 52.2409 104.108 52.2409 101.768V58.4818C52.2409 56.142 54.142 54.241 56.4818 54.241H82.9506C108.103 54.241 111.905 70.4732 111.905 80.1248C111.905 96.7958 101.669 106.009 82.9506 106.009ZM56.4818 55.7033C54.8732 55.7033 53.7033 57.0195 53.7033 58.4818V101.768C53.7033 103.376 55.0194 104.546 56.4818 104.546H82.9506C100.645 104.546 110.443 95.7722 110.443 79.9786C110.443 58.7743 93.1871 55.5571 82.9506 55.5571L56.4818 55.7033Z" fill="black"/>
<path d="M74.3225 75.0066C74.9075 75.0066 75.4924 75.1528 75.9311 75.2991C76.3698 75.4453 76.8086 75.7378 77.2473 76.1765C77.5397 76.6152 77.8322 77.0539 78.1247 77.4926C78.2709 78.0776 78.4172 78.6625 78.4172 79.3937C78.4172 80.1249 78.2709 80.7098 78.1247 81.1485C77.9784 81.7335 77.686 82.1722 77.3935 82.6109C77.101 83.0496 76.6623 83.3421 76.0774 83.6345C75.6387 83.927 74.9075 83.927 74.3225 83.927H70.3741V74.8604L74.3225 75.0066ZM74.1763 82.3184C74.4688 82.3184 74.7612 82.3184 75.0537 82.1722C75.3462 82.0259 75.4924 81.8797 75.7849 81.7335C75.9311 81.441 76.2236 81.2948 76.2236 80.856C76.3698 80.5636 76.3698 80.1249 76.3698 79.5399C76.3698 79.1012 76.3698 78.6625 76.2236 78.37C76.0774 78.0776 75.9311 77.6388 75.7849 77.4926C75.6387 77.2001 75.3462 77.0539 75.0537 76.9077C74.7612 76.7614 74.3225 76.7614 73.8838 76.7614H72.4215V82.4646L74.1763 82.3184Z" fill="white"/>
<path d="M86.4604 75.0066V76.6152H81.6346V78.6625H86.0217V80.1249H81.6346V82.3184H86.4604V83.927H79.5873V74.8604L86.4604 75.0066Z" fill="white"/>
<path d="M93.1873 75.0066L96.5507 84.0733H94.5034L93.7722 82.0259H90.4088L89.6776 84.0733H87.6303L90.9937 75.0066C91.14 75.0066 93.1873 75.0066 93.1873 75.0066ZM93.3335 80.5636L92.1636 77.2001L90.9937 80.5636H93.3335Z" fill="white"/>
<path d="M99.7673 75.0066V82.3184H104.154V83.927H97.72V74.8604C97.8662 75.0066 99.7673 75.0066 99.7673 75.0066Z" fill="white"/>
<path d="M61.0151 83.6343C63.2765 83.6343 65.1097 81.8011 65.1097 79.5397C65.1097 77.2783 63.2765 75.4451 61.0151 75.4451C58.7537 75.4451 56.9205 77.2783 56.9205 79.5397C56.9205 81.8011 58.7537 83.6343 61.0151 83.6343Z" fill="black"/>
<path d="M64.2326 100.452C60.7229 100.452 57.9444 97.673 57.9444 94.1634V89.1913C57.9444 87.4365 59.4068 85.9741 61.1616 85.9741C62.9164 85.9741 64.3788 87.4365 64.3788 89.1913L64.2326 100.452Z" fill="black"/>
<defs>
<linearGradient id="paint0_linear_638_585" x1="128.471" y1="165.647" x2="25.8824" y2="8.94118" gradientUnits="userSpaceOnUse">
<stop stop-color="#BF0060"/>
<stop offset="0.618516" stop-color="#DF0E77"/>
<stop offset="1" stop-color="#E50877"/>
</linearGradient>
</defs>
</svg>
