<svg width="160" height="160" viewBox="0 0 160 160" fill="none" xmlns="http://www.w3.org/2000/svg">
<path d="M159.999 -0.000352118V160L-0.000732422 160L-0.000725376 -0.000366211L159.999 -0.000352118Z" fill="url(#paint0_linear_638_535)"/>
<path opacity="0.6" d="M102.462 64.0903C102.401 64.4685 102.332 64.8507 102.255 65.2452C99.5468 78.5744 90.2798 83.1774 78.4469 83.1774H72.4207C70.9731 83.1774 69.7533 84.1859 69.5255 85.5562L66.4433 104.31L65.5691 109.624C65.4999 110.051 65.626 110.487 65.9188 110.816C66.2115 111.145 66.6385 111.332 67.0898 111.332H77.776C79.0447 111.332 80.1182 110.45 80.3174 109.254L80.4232 108.734L82.436 96.4945L82.562 95.8235C82.7613 94.624 83.8388 93.7416 85.1034 93.7416H86.7015C97.0542 93.7416 105.162 89.7119 107.529 78.0498C108.521 73.1825 108.009 69.1122 105.39 66.2536C104.561 65.3671 103.568 64.6352 102.462 64.0903Z" fill="white"/>
<path opacity="0.8" d="M99.6322 63.0085C98.7661 62.7686 97.8878 62.5816 96.9973 62.4474C95.2406 62.1872 93.4637 62.0652 91.6867 62.0774H75.5883C74.3237 62.0733 73.2462 62.9598 73.051 64.1593L69.6272 84.9461L69.5255 85.556C69.7492 84.1857 70.9772 83.1773 72.4207 83.1773H78.4469C90.2798 83.1773 99.5468 78.5702 102.255 65.245C102.336 64.8506 102.401 64.4683 102.462 64.0902C101.751 63.7323 101.007 63.4314 100.238 63.1915C100.035 63.1265 99.8355 63.0655 99.6322 63.0085Z" fill="white"/>
<path d="M73.051 64.1594C73.2421 62.9598 74.3197 62.0734 75.5883 62.0774H91.6867C93.5938 62.0774 95.3707 62.1994 96.9973 62.4515C98.0952 62.6142 99.1808 62.8622 100.238 63.1916C101.039 63.4437 101.779 63.7446 102.466 64.0902C103.272 59.166 102.458 55.8113 99.681 52.7738C96.6191 49.4313 91.089 48 84.0136 48H63.479C62.0314 48 60.7993 49.0084 60.5756 50.3788L52.0202 102.354C51.943 102.842 52.0893 103.338 52.4228 103.716C52.7562 104.09 53.2482 104.31 53.7606 104.31H66.4433L69.6272 84.9462L73.051 64.1594Z" fill="white"/>
<defs>
<linearGradient id="paint0_linear_638_535" x1="138.105" y1="141.893" x2="26.9466" y2="-7.1599" gradientUnits="userSpaceOnUse">
<stop stop-color="#0086E6"/>
<stop offset="1" stop-color="#60BCFF"/>
</linearGradient>
</defs>
</svg>
