<svg width="160" height="160" viewBox="0 0 160 160" fill="none" xmlns="http://www.w3.org/2000/svg">
<rect y="6.10352e-05" width="160" height="160" fill="url(#paint0_linear_617_328)"/>
<path fill-rule="evenodd" clip-rule="evenodd" d="M50.5768 75.4857H43.3157C43.3157 74.3082 43.1761 73.5184 42.8974 73.1162C42.4651 72.5207 41.2728 72.2228 39.3209 72.2228C37.425 72.2228 36.1686 72.3941 35.5554 72.7373C34.9426 73.0814 34.6354 73.8299 34.6354 74.9823C34.6354 76.0256 34.9074 76.7125 35.452 77.0417C35.8418 77.2753 36.3576 77.4127 37 77.4537L38.4642 77.5559C41.6024 77.7617 43.5624 77.9067 44.3441 77.9894C46.8261 78.2366 48.625 78.8884 49.7416 79.9456C50.6198 80.7698 51.1436 81.8475 51.3111 83.1782C51.4085 83.9743 51.4574 84.8754 51.4574 85.8763C51.4574 88.1829 51.2344 89.8724 50.7886 90.9431C49.9802 92.9076 48.1641 94.1487 45.338 94.6698C44.1541 94.8898 42.3433 95 39.9074 95C35.8407 95 33.0072 94.7609 31.4072 94.2801C29.4433 93.6912 28.1487 92.4984 27.5221 90.7018C27.1731 89.7017 27 88.0362 27 85.7045H34.2607C34.2607 85.9646 34.2618 86.1631 34.2618 86.3C34.2618 87.5446 34.6235 88.3445 35.3461 88.7012C35.8467 88.947 36.4511 89.0759 37.1615 89.0912H39.831C41.1929 89.0912 42.0626 89.0221 42.4373 88.8837C43.105 88.6244 43.543 88.2072 43.7523 87.6294C43.8635 87.2734 43.9184 86.8132 43.9184 86.25C43.9184 84.9884 43.4526 84.2208 42.5217 83.9455C42.1737 83.8367 40.5551 83.6851 37.6652 83.4929C35.3443 83.3291 33.7323 83.1716 32.8299 83.019C30.4527 82.58 28.8685 81.6761 28.078 80.3043C27.3828 79.1387 27.0355 77.3751 27.0355 75.016C27.0355 73.2194 27.2231 71.7788 27.5988 70.6952C27.9745 69.6116 28.58 68.7884 29.4156 68.226C30.6395 67.3617 32.2054 66.8545 34.1119 66.703C35.6986 66.5663 37.4584 66.4965 39.3941 66.4965C42.4415 66.4965 44.6132 66.6699 45.9079 67.0127C49.0675 67.8519 50.6468 70.2016 50.6468 74.0625C50.6468 74.3792 50.6236 74.853 50.5768 75.4857Z" fill="white"/>
<path fill-rule="evenodd" clip-rule="evenodd" d="M90.0407 80.7598H94.9063C96.449 80.7049 97.3873 80.5874 97.7251 80.4041C98.1863 80.1535 98.4959 79.6515 98.65 78.8992C98.7485 78.3983 98.7977 77.6533 98.7977 76.6643C98.7977 75.452 98.6999 74.5537 98.5033 73.9673C98.2225 73.1455 97.5502 72.6449 96.4853 72.463C96.2749 72.4356 95.7707 72.421 94.9721 72.421H90.0407V80.7598ZM82.2361 94.8051V66.1503H93.6113H95.3967H96.7769C98.7714 66.1503 100.293 66.3112 101.339 66.6328C103.731 67.3733 105.335 68.8893 106.157 71.1806C106.581 72.3831 106.793 74.1936 106.793 76.6111C106.793 79.5177 106.558 81.6066 106.093 82.8783C105.16 85.3931 103.24 86.8417 100.341 87.2172C100.001 87.2735 98.5501 87.3239 95.9896 87.3642L94.6942 87.407H90.0407V94.8051H82.2361Z" fill="white"/>
<path fill-rule="evenodd" clip-rule="evenodd" d="M122.056 84.2706L118.399 71.8495L114.851 84.2706H122.056ZM123.606 89.8533H113.171L111.769 94.8054H103.694L112.407 66.1503H124.18L133 94.8054H125.095L123.606 89.8533Z" fill="white"/>
<path fill-rule="evenodd" clip-rule="evenodd" d="M71.786 69.7764C75.0047 69.7764 77.8776 71.2417 79.7665 73.5368L81.4489 69.9725C78.8173 67.515 75.2366 66 71.2867 66C65.137 66 59.876 69.67 57.7173 74.8651H54.4366L52.4995 78.9687H56.7199C56.6882 79.3493 56.6675 79.7303 56.6675 80.119C56.6675 80.5893 56.6924 81.0541 56.7392 81.5134H54.6185L52.6818 85.6183H57.8179C60.0382 90.682 65.2334 94.2369 71.2867 94.2369C74.3373 94.2369 77.168 93.3338 79.5118 91.791V86.7603C77.6243 88.8837 74.8636 90.2255 71.786 90.2255C68.188 90.2255 65.0234 88.3924 63.1809 85.6183H73.9359L75.873 81.5134H61.5985C61.525 81.0194 61.4856 80.5146 61.4856 80.0004C61.4856 79.6528 61.5035 79.3086 61.5376 78.9687H77.0734L79.0101 74.8651H62.8808C64.6649 71.8233 67.9839 69.7764 71.786 69.7764Z" fill="#FEC10E"/>
<defs>
<linearGradient id="paint0_linear_617_328" x1="-12.0001" y1="-104" x2="96.9029" y2="285.4" gradientUnits="userSpaceOnUse">
<stop offset="0.0569697" stop-color="#3795F0"/>
<stop offset="0.841212" stop-color="#0054A5"/>
</linearGradient>
</defs>
</svg>
