<svg width="160" height="160" viewBox="0 0 160 160" fill="none" xmlns="http://www.w3.org/2000/svg">
<rect width="160" height="160" transform="matrix(-1 -8.74228e-08 -7.18902e-08 1 160 0)" fill="url(#paint0_linear_639_712)"/>
<path fill-rule="evenodd" clip-rule="evenodd" d="M48.3328 84.9339C45.8166 84.9339 44.0531 83.2599 44.0531 80.6388C44.0531 77.7313 46.2467 75.022 49.408 75.022C51.9242 75.022 53.6876 76.7841 53.6876 79.4053C53.7091 82.2907 51.4941 84.9339 48.3328 84.9339ZM49.8166 70C43.1929 70 38.1821 74.9559 38.1821 80.8811C38.1821 86.2555 42.3112 89.9559 47.9457 89.9559C54.5694 89.9559 59.5802 84.8458 59.5802 78.9207C59.5587 73.5683 55.4511 70 49.8166 70Z" fill="#393941"/>
<path fill-rule="evenodd" clip-rule="evenodd" d="M88.2474 84.9339C85.7313 84.9339 83.9678 83.2599 83.9678 80.6388C83.9678 77.7313 86.1614 75.022 89.3227 75.022C91.8389 75.022 93.6023 76.7841 93.6023 79.4053C93.6023 82.2907 91.4088 84.9339 88.2474 84.9339ZM89.7098 70C83.0861 70 78.0753 74.9559 78.0753 80.8811C78.0753 86.2555 82.2044 89.9559 87.8388 89.9559C94.4626 89.9559 99.4734 84.8458 99.4734 78.9207C99.4734 73.5683 95.3443 70 89.7098 70Z" fill="#393941"/>
<path fill-rule="evenodd" clip-rule="evenodd" d="M109.538 79.4493H108.677L109.323 75.4405H110.097C111.925 75.4405 112.914 76.0132 112.914 77.2247C112.914 78.7225 111.516 79.4493 109.538 79.4493ZM118.957 76.2996C118.957 72.7093 116.204 70.3965 111.237 70.3965H104.204L101.129 89.5595H107.043L108.011 83.5242H108.29L111.43 89.5595H118.204L113.86 82.8634C117.043 81.7401 118.957 79.2952 118.957 76.2996Z" fill="#393941"/>
<path fill-rule="evenodd" clip-rule="evenodd" d="M31.4087 78.0396C29.1721 76.8943 28.656 76.5859 28.656 75.9692C28.656 75.1982 29.5377 74.8238 30.785 74.8238C32.2044 74.8238 34.3765 74.978 36.484 77.0264C37.0001 75.3744 37.8604 73.8987 38.9786 72.5991C35.9894 70.8811 33.2367 70 30.699 70C25.6452 70 22.7635 72.7533 22.7635 76.0573C22.7635 78.8987 24.871 80.3965 27.3872 81.696C29.6237 82.8855 30.2044 83.2379 30.2044 83.9648C30.2044 84.7357 29.2581 85.1762 28.0108 85.1762C25.8387 85.1762 23.3441 83.7885 21.8602 82.3789L21 87.7092C22.5484 88.8326 24.7635 90 28.0968 90C33.3012 90 36.1184 87.3348 36.1184 83.8987C36.0754 81.0793 34.2689 79.5374 31.4087 78.0396Z" fill="#393941"/>
<path fill-rule="evenodd" clip-rule="evenodd" d="M75.1294 78.8105H68.2046L68.7423 75.4625H76.1617C77.1294 73.4361 78.6133 71.718 80.4628 70.4185H68.3121C65.624 70.4185 63.3229 72.2907 62.9143 74.8237L60.5486 89.5815H66.4627L67.4304 83.5462H74.4627L74.9789 80.2643C75.0004 79.7797 75.0434 79.2951 75.1294 78.8105Z" fill="#393941"/>
<path fill-rule="evenodd" clip-rule="evenodd" d="M119.086 70.3965C120.656 71.63 121.645 73.348 121.839 75.4405H126.785L124.505 89.5375H130.419L132.699 75.4405H138.183L139 70.3965H119.086Z" fill="#393941"/>
<defs>
<linearGradient id="paint0_linear_639_712" x1="9.88235" y1="153.882" x2="143.529" y2="11.7647" gradientUnits="userSpaceOnUse">
<stop stop-color="#DBDBDB"/>
<stop offset="1" stop-color="#EDEDED"/>
</linearGradient>
</defs>
</svg>
