<svg width="160" height="160" viewBox="0 0 160 160" fill="none" xmlns="http://www.w3.org/2000/svg">
<path d="M160 1.39876e-05L1.15024e-05 0L0 160L160 160L160 1.39876e-05Z" fill="url(#paint0_linear_617_532)"/>
<path fill-rule="evenodd" clip-rule="evenodd" d="M81.7179 74.2302C81.6608 78.6877 85.7266 81.1754 88.7896 82.6542C91.9366 84.1719 92.9937 85.1449 92.9816 86.5018C92.9576 88.5788 90.4712 89.4953 88.144 89.5309C84.0841 89.5935 81.7238 88.4448 79.8471 87.576L78.3847 94.3574C80.2674 95.2174 83.7538 95.9672 87.3692 96C95.8554 96 101.408 91.849 101.438 85.4127C101.471 77.2446 90.0357 76.7923 90.1139 73.1411C90.1409 72.0342 91.2069 70.8529 93.5432 70.5524C94.6992 70.4006 97.8913 70.2846 101.51 71.9361L102.93 65.3748C100.984 64.6725 98.4829 64 95.3688 64C87.3812 64 81.7629 68.2076 81.7179 74.2302ZM116.577 64.5655C115.028 64.5655 113.722 65.4611 113.139 66.8359L101.017 95.518H109.497L111.184 90.8968H121.547L122.526 95.518H130L123.478 64.5655H116.577ZM117.767 72.927L120.215 84.5498H113.512L117.767 72.927ZM71.4357 64.5655L64.7513 95.518H72.832L79.5133 64.5655H71.4357ZM59.4821 64.5655L51.0711 85.6329L47.6689 67.7196C47.2695 65.72 45.693 64.5655 43.9423 64.5655H30.1922L30 65.4641C32.8227 66.0711 36.0298 67.0502 37.9726 68.0975C39.1618 68.7373 39.5011 69.2967 39.8915 70.8173L46.3357 95.518H54.8758L67.9683 64.5655H59.4821Z" fill="white"/>
<defs>
<linearGradient id="paint0_linear_617_532" x1="-1.15251e-05" y1="-45" x2="160" y2="216" gradientUnits="userSpaceOnUse">
<stop stop-color="#0B3ADD"/>
<stop offset="1" stop-color="#022DC5"/>
</linearGradient>
</defs>
</svg>
